<svg xmlns="http://www.w3.org/2000/svg" viewBox="0 0 512 512"><path d="M256 84.858C256 164.925 320.799 231 400.858 231H426v-25.142C426 125.788 360.914 60 280.858 60h-49.717C151.075 60 86 125.799 86 205.858V231h25.142C191.212 231 256 164.914 256 84.858zm148.328 175.844c-3.224-.275-27.193 2.388-63.029-10.576a175.242 175.242 0 01-30.165 65.25c37.95 37.139 74.063 38.472 87.365 43.471 2.453-14.916 19.302-46.809 5.829-98.145zM371.463 382.66c-3.01-.958-18.843-4.169-39.078-14.544a174.896 174.896 0 01-27.849 45.69c25.541 14.183 38.123 14.341 56.537 20.056 6.213-27.477 8.507-24.432 10.39-51.202zm-164.004 31.146a174.778 174.778 0 01-27.849-45.683c-20.378 10.446-36.227 13.619-39.344 14.608 1.639 23.062 6.13 31.945 10.734 51.116 18.611-5.781 31.168-5.999 56.459-20.041zm83.472-75.315L256 373.422l-34.933-34.933c-4.938 4.741-10.192 9.119-15.645 13.248 7.196 19.206 18.256 36.942 32.999 51.685L256 421l17.578-17.578c14.745-14.745 25.8-32.485 32.994-51.694-5.451-4.129-10.704-8.502-15.641-13.237zm-183.268-77.789c-13.143 50.085 3.726 85.386 5.823 98.145 13.277-4.988 49.689-6.572 87.378-43.478a175.206 175.206 0 01-30.157-65.246c-33.852 12.251-60.043 10.325-63.044 10.579z" data-original="#000000" class="active-path" data-old_color="#000000" fill="#CBB27C"/><path d="M256 331l17.578-17.578c20.867-20.867 34.526-47.657 39.818-76.295-24.355-14.128-42.883-31.963-57.396-53.344-14.546 21.431-33.085 39.238-57.394 53.342 5.283 28.64 18.951 55.432 39.816 76.296zm-27.391 105.031c-6.714 4.114-13.531 8.09-20.781 11.287 7.2 17.01 17.316 33.82 30.593 47.104L256 512l17.578-17.578c13.281-13.281 23.399-30.086 30.599-47.097-7.253-3.197-14.072-7.174-20.788-11.292L256 463.422zM280.858 30c6.79 0 13.495.498 20.142 1.256V0h-90v31.256c6.647-.76 13.352-1.256 20.142-1.256z" data-original="#000000" class="active-path" data-old_color="#000000" fill="#CBB27C"/></svg>